<svg xmlns="http://www.w3.org/2000/svg" xmlns:xlink="http://www.w3.org/1999/xlink" viewBox="0 0 737.12 1088.37"><defs><style>.cls-1,.cls-2{fill:none;}.cls-1{clip-rule:evenodd;}.cls-2{clip-path:url(#clip-path);}.cls-3{clip-path:url(#clip-path-2);}.cls-4{fill:#fff;}.cls-4,.cls-5,.cls-6,.cls-7,.cls-8,.cls-9{fill-rule:evenodd;}.cls-5{fill:#d7eecf;}.cls-6{fill:#c1f2ce;}.cls-7{fill:#99c1b4;}.cls-8{fill:#81b7a6;}.cls-10{clip-path:url(#clip-path-3);}</style><clipPath id="clip-path"><polygon class="cls-1" points="3689.36 0 0 0 0 1475.74 3689.36 1475.74 3689.36 0 3689.36 0"/></clipPath><clipPath id="clip-path-2" transform="translate(-142.5 -186.35)"><rect class="cls-2" x="0.06" y="0.02" width="3689.4" height="1475.78"/></clipPath><clipPath id="clip-path-3" transform="translate(-142.5 -186.35)"><path class="cls-1" d="M649.29,595.73c23.68-6.35,44.2,6.6,66.57,11.14,18.21,3.7,39.06.92,54.33,14.4,15.82,14,16.89,29.73,23.76,47.34,21.35,54.8-3.1,80.88-19.72,132.42-2.68,8.3-10.38,24.61-18.86,28.9-1.59.8-.59-9.32-.33-11.08,1.58-10.73,1.25-20.43-2.23-30.74-10.29-30.47-29.74-87.17-72-77.94-1.36.3-19.54,5.52-14.15,10.28,31.85,28.11,74.37,84.47,63.1,132.42-3.11,13.25-59.66,52.94-73.22,57.62-6.81,2.35-19.44,9.2-19.44,9.2s9-7.65,11.45-12.66C665.11,873.64,664,783.73,620.66,765c-9.3-4-15.47,12.93-17.88,17.78-24.69,49.8,24.84,83.65,26.14,127.36.1,3.42,1.1,7.82.33,11.08-8,34.06-58.14,58.2-85.69,80.17-5.1,4.07-16.78,10.36-16.78,10.36S538.62,1000.87,542,994c12.28-24.78,37.74-121.08,6.37-139.41C494.75,823.24,525,965.3,499.85,990.32c-28.05,27.9-56.21,15-87.78,10-15-2.35-32.16,2.19-47.25,2.64-9.45.28-27.4,7-27.4,7s2.18-2.32,2.52-3.77c4.32-18.36-6.9-37.41-18.61-51.19-17.12-20.14-72.85-48.8-55.1-84.61,11.85-23.9,117.57-24.81,116.74-52.76-.05-1.69,2.48-3.8,1.17-5-22.19-19.59-95.81,23.6-106.45,45.06l-3.72,7.5s-2.84-9-4.34-13.42c-8.19-24.25-14.09-64.1,16-79.33,31.93-16.14,75.59-31.17,112-35.37,11.21-1.29,21.91,4.28,33,3.95l2.63-.08c-1.78-60-101.47-26.56-130.39-8.44-11,6.87-20.31,23.38-29.4,28-6.23,3.15-18.09,10.4-18.09,10.4s.55-19.79,1.75-29.62c7.68-62.9,7.86-82.55,80-96,16.16-3,135.53-10.61,137.65-12.72,1-1-7.31-2.1-8-2.23-27.71-5.63-41.74-27.1-74.39-26.12-20.83.62-40.07,10-60,15.34-1.66.44-27.83,7.8-24.66,10.59,1,.89,5.42-15.82,6.05-17.43,6.79-17.31,10.28-28,23.75-41.37,15-14.93,30.09-37.67,48.53-44,21.17-7.31,30.55-31,52.8-43.93C533.45,428.2,603,487.59,632,511c26.92,21.75,9.7,65.94,17.25,84.72Z"/></clipPath></defs><title>Asset 2</title><g id="Layer_2" data-name="Layer 2"><g id="Layer_2-2" data-name="Layer 2"><g class="cls-3"><polygon class="cls-4" points="737.12 0 0 0 0 1088.38 737.12 1088.38 737.12 0 737.12 0"/><path class="cls-5" d="M233.1,1038.91c26-35.81,85,21.06,45.07,44.26-25.61,14.88-64-18.21-45.07-44.26Z" transform="translate(-142.5 -186.35)"/><path class="cls-6" d="M472.58,413.81c5.67-11.74,19.83-20.15,45-21.85,20.18-1.37,34.05,8.76,52,15.67,33.5,12.91,82.14,27.69,47.61,74.48-10.22,13.86-22.48,30.13-39.23,35a130.66,130.66,0,0,1-49.3-15.36c-5.86-24.69-14.43-46.18-22.94-58.13-6.11-8.58-18-19.08-33.11-29.86Z" transform="translate(-142.5 -186.35)"/><path class="cls-6" d="M429.45,1085.08c-229.44-221.33,139.93-395,296.72-232,20.61,21.42,20.77,58.47,33.65,84.6,16.62,33.71,41.52,68.57,42.44,107.25.64,26.68-14,49-30.74,68.62-82.32,96.17-264.31,58.84-342.07-28.44Z" transform="translate(-142.5 -186.35)"/><path class="cls-7" d="M528.63,501.8c12.59,52.81,12.81,120.24-26.32,140.13-87.07,44.24-205.11,11.34-230.36-81.83-7.35-27.11-.23-58.17-1.86-86-3.68-62.77-40.44-92.66,34.17-119.65,36.57-13.23,119.58,24.6,168.32,59.37-12.24,25.21,14.71,65.76,56.05,88Z" transform="translate(-142.5 -186.35)"/><path class="cls-8" d="M472.58,413.81c15.16,10.78,27,21.28,33.11,29.86,8.51,12,17.08,33.44,22.94,58.13-41.35-22.23-68.3-62.78-56.05-88Z" transform="translate(-142.5 -186.35)"/><path class="cls-9" d="M802.55,545.06C771,532.72,743.7,532,714.72,543s-59.39,33.86-97.55,68.92c-2.56,2.35-5.13,4.79-7.79,7.22-.26.24-.51.49-.79.71-.43.33-.9.58-1.36.88a2.47,2.47,0,0,0,3.39,3.61c.33-.44.61-.88,1-1.29s.5-.5.76-.74c2.6-2.48,5.21-4.84,7.77-7.18,37.68-34.47,67.8-57,96.26-67.77,27.87-10.54,54.1-9.67,84.37,2.29a2.47,2.47,0,1,0,1.81-4.61Z" transform="translate(-142.5 -186.35)"/></g><path class="cls-9" d="M307,626.3c1.68-4.64,4-13.38,4.48-14.52,4.2-10.71,7.17-18.9,11.93-26.74a80,80,0,0,1,12.38-15.47c10.24-10.18,20.52-24,31.87-33.8,5.58-4.82,11.42-8.69,17.6-10.83a41.28,41.28,0,0,0,11.43-6.24c7-5.25,12.84-12.28,19.31-19.21,6.23-6.67,13-13.25,21.62-18.29,38.68-22.55,73.26-26.21,102.69-21,43.52,7.65,75.76,34.76,93.3,48.92,8,6.45,12.33,14.75,14.59,23.82,3.05,12.27,2.22,26,1.71,38.12-.36,8.42-.6,16.06,1,21.77h0a56.12,56.12,0,0,1,19-.8c15.72,1.88,30.61,9.25,46.4,12.45,11,2.23,22.91,2.11,34,4.61,7.73,1.74,15.06,4.7,21.47,10.36a55.39,55.39,0,0,1,13.5,17.77c4.62,9.48,6.68,19.65,10.92,30.53,8.51,21.84,9.88,39.22,7.41,55.42-3.8,24.94-16.89,47-27.08,78.66a87.41,87.41,0,0,1-9.41,19.56c-3.19,4.82-6.9,8.87-10.69,10.79a2.62,2.62,0,0,1-2.81-.15,3.55,3.55,0,0,1-1.4-2.21c-.58-2.48.09-9.77.31-11.29a71.48,71.48,0,0,0,.76-15,56.11,56.11,0,0,0-2.89-14.59c-6-17.73-15.06-44.49-30.1-61.56-10-11.34-22.68-18.32-39-14.75a56.67,56.67,0,0,0-8.93,3.22,16.11,16.11,0,0,0-3.69,2.24,4.31,4.31,0,0,0-.46.51l0,0c19.26,17,42.36,44.22,55.41,73.71,8.91,20.14,13.11,41.34,8.46,61.13-.47,2-1.93,4.56-4.27,7.45-4.7,5.81-13.08,13.29-22.55,20.76-18.07,14.26-40.15,28.47-48,31.18a83.17,83.17,0,0,0-7.68,3.26c-5.75,2.71-11.4,5.78-11.4,5.78a2.47,2.47,0,0,1-2.79-4.06,88.52,88.52,0,0,0,7.16-6.94,24.53,24.53,0,0,0,3.69-4.94c9.61-19.39,13.09-58.18,5.6-90.45-5.08-21.9-15.17-40.87-32.25-48.27-2.72-1.18-5,.43-6.92,2.64-3.79,4.32-6.39,11.2-7.76,14-6.76,13.63-7.74,26-5.64,37.74,2.68,15,10.31,28.9,17.37,42.9,7.41,14.69,14.19,29.48,14.67,45.55.07,2.36.56,5.19.61,7.79a16,16,0,0,1-.35,3.93C629,933.13,621.81,943.49,612.3,953c-19.34,19.36-48.46,35.32-67.2,50.26a74.13,74.13,0,0,1-6.77,4.61c-5.06,3.13-10.38,6-10.38,6a2.47,2.47,0,0,1-2.84-4,132.82,132.82,0,0,0,9.6-9.87,38.1,38.1,0,0,0,5.1-7.1c7-14.09,18.25-51.55,20.7-84.31.95-12.68.58-24.65-1.94-34.23-2.1-8-5.66-14.27-11.42-17.64-7.07-4.13-12.44-5.12-16.62-3.29-3.19,1.4-5.55,4.39-7.46,8.42-4,8.4-5.77,21.15-6.86,35.41-1.37,17.95-1.56,38.26-3.11,55.65-1,10.84-2.46,20.57-5,27.95-1.67,4.75-3.8,8.57-6.46,11.22-11.22,11.16-22.47,16-33.92,17.53-17.87,2.35-36.28-3.75-56-6.84a66.42,66.42,0,0,0-13.69-.51c-11.09.58-22.6,2.87-33.1,3.18a53.58,53.58,0,0,0-10.63,1.82c-8,2-16,5-16,5a2.47,2.47,0,0,1-2.67-4,17.38,17.38,0,0,0,1.24-1.52,3.89,3.89,0,0,0,.67-1.12c1.64-7,.86-14.09-1.35-20.93-3.35-10.37-10-20.13-16.74-28.09-6.14-7.22-17.32-15.54-28.22-24.91-10.18-8.76-20.11-18.42-25.82-28.89s-7.31-21.59-1.4-33.51a20,20,0,0,1,6.38-7l-3.12-9.65c-5.08-15.05-9.24-36-4.94-53.61,2.9-11.9,9.58-22.34,22.21-28.73a390.77,390.77,0,0,1,54.93-22.39c19.54-6.31,39.62-11.12,57.9-13.23a35.77,35.77,0,0,1,7.15-.06c8.74.74,17.28,4.25,26,4h.09c-.65-8-3.29-14.13-7.46-18.61-7.27-7.8-19-10.67-32.34-10.72-30.88-.12-70.29,15.12-86.67,25.38-8.26,5.17-15.54,16-22.53,22.73a30.21,30.21,0,0,1-7.07,5.36c-2,1-4.61,2.46-7.2,4C262,769.74,256.67,773,256.67,773a2.47,2.47,0,0,1-3.76-2.18s.25-9,.78-17.87c.26-4.37.59-8.72,1-12,4-33,6.21-54.31,17.28-69.08,10.47-14,28.88-22.38,64.69-29.07,4-.75,14.38-1.79,27.74-3,30.29-2.63,76.14-5.93,97.88-8.09-8.35-2.23-15.53-5.8-22.49-9.6-8-4.36-15.67-9-24.65-12.12a62.51,62.51,0,0,0-22.66-3.41,89.38,89.38,0,0,0-17.94,2.53c-14,3.31-27.59,9-41.52,12.73-1.23.33-16.29,4.5-22,7.68l0,0a5.77,5.77,0,0,1-1.89,2.62,2.41,2.41,0,0,1-3-.3c-1.53-1.35-1.78-3.63.91-5.66ZM757.17,825.7a35.58,35.58,0,0,0,5.86-7.07,82,82,0,0,0,8.83-18.35C782,769,795,747.1,798.77,722.4c2.35-15.46,1-32-7.13-52.88-4.18-10.74-6.19-20.79-10.76-30.16a50.58,50.58,0,0,0-12.33-16.23c-5.75-5.07-12.35-7.69-19.28-9.24-11.06-2.49-23-2.36-33.91-4.59-13.46-2.73-26.26-8.51-39.47-11.3-8.38-1.77-16.93-2.3-26,.12a2.48,2.48,0,0,1-2.94-1.47c-2.56-6.38-2.48-15.56-2-25.84.49-11.7,1.38-24.89-1.56-36.71-2-8-5.81-15.44-12.9-21.16-17.12-13.84-48.55-40.43-91-47.9-28.47-5-61.91-1.38-99.34,20.44-8.2,4.78-14.59,11.06-20.5,17.39-6.68,7.15-12.76,14.36-19.95,19.78a46.19,46.19,0,0,1-12.8,7c-5.63,1.94-10.91,5.51-16,9.89-11.26,9.74-21.45,23.46-31.62,33.57a75.15,75.15,0,0,0-11.64,14.53c-4.62,7.62-7.48,15.59-11.55,26-.32.8-1.57,5.36-2.88,9.63,7.24-2.89,17.51-5.81,18.55-6.08,14-3.71,27.59-9.44,41.65-12.76a94.32,94.32,0,0,1,18.93-2.66,67.34,67.34,0,0,1,24.41,3.68c9.25,3.18,17.18,8,25.41,12.45,7.64,4.17,15.54,8.09,25.14,10,.56.11,6.4,1,8.16,1.82a3.2,3.2,0,0,1,1.73,1.85,2.52,2.52,0,0,1-.69,2.73,5.46,5.46,0,0,1-2.6,1.06c-2.11.4-6.54.91-12.58,1.5-32.17,3.12-110.87,8.43-123.76,10.84-34,6.35-51.69,13.89-61.64,27.17-10.68,14.25-12.43,34.86-16.32,66.72-.39,3.18-.71,7.42-1,11.68-.29,4.87-.5,9.77-.62,13.17,2-1.17,4.43-2.63,6.92-4.06,2.68-1.54,5.36-3,7.44-4.08a25.26,25.26,0,0,0,5.85-4.49c7.22-7,14.82-18,23.35-23.38,16.88-10.57,57.49-26.26,89.32-26.14,14.87.06,27.84,3.61,35.94,12.3,5.31,5.69,8.6,13.6,8.92,24.3a2.47,2.47,0,0,1-2.4,2.55l-2.63.08c-7.9.24-15.62-2.43-23.46-3.63a34.91,34.91,0,0,0-9.31-.33c-18,2.07-37.73,6.81-56.95,13a385.64,385.64,0,0,0-54.22,22.1c-11.19,5.65-17.06,14.94-19.64,25.48-4.08,16.73,0,36.57,4.82,50.85l2.48,7.67,1-2.06c2.44-4.92,8-11,15.49-17.14A184.94,184.94,0,0,1,336,812.82c12.49-5.09,24.77-8.12,34.56-7.55,6.13.36,11.33,2.13,15.17,5.52a3.4,3.4,0,0,1,1.2,3.06,7.16,7.16,0,0,1-.92,2.54c-.21.39-.55,1.13-.61,1.24.1,4.16-1.7,7.85-5.1,11.12s-8.33,6.06-14.43,8.58c-19.14,7.9-49.62,12.9-71.93,19.83a96.59,96.59,0,0,0-16.49,6.49l-1.32,2.67a2.47,2.47,0,0,1-3.91.7,13.68,13.68,0,0,0-3.82,4.46c-5.11,10.3-3.6,20,1.31,28.94,5.45,10,15,19.15,24.7,27.51,11.12,9.57,22.49,18.09,28.76,25.46,7.17,8.43,14.13,18.8,17.68,29.78a44.13,44.13,0,0,1,1.72,22.38c3-1,6.69-2.12,10.44-3.06a58.68,58.68,0,0,1,11.7-2c10.47-.31,21.94-2.6,33-3.18a71.29,71.29,0,0,1,14.71.57c19.22,3,37.15,9.11,54.58,6.82,10.5-1.38,20.79-5.9,31.07-16.13,2.86-2.84,4.86-7.36,6.41-13,2.66-9.68,3.82-22.52,4.58-36.26,1.64-29.37,1.57-62.79,9.5-79.58,2.49-5.28,5.78-9,9.95-10.84,5.28-2.32,12.17-1.67,21.1,3.54,6.79,4,11.23,11.23,13.71,20.65,2.64,10,3.08,22.57,2.09,35.86-2.5,33.47-14.06,71.75-21.2,86.14a33,33,0,0,1-3.39,5.19c.42-.3.8-.6,1.16-.88,18.61-14.84,47.57-30.66,66.78-49.89,8.81-8.82,15.56-18.36,18-28.91a11,11,0,0,0,.22-2.7c0-2.58-.54-5.39-.61-7.74-.46-15.35-7.07-29.43-14.14-43.46-7.28-14.43-15.05-28.8-17.82-44.26-2.27-12.67-1.23-26.07,6.08-40.81,1.75-3.52,5.49-13,10.77-17.26,3-2.41,6.46-3.35,10.3-1.69,18.39,8,29.64,28.12,35.11,51.69,7.77,33.47,4,73.67-6,93.77A19.59,19.59,0,0,1,649,911c2.43-1.12,4.81-2.13,6.74-2.8,7.62-2.63,29-16.55,46.55-30.39a176.72,176.72,0,0,0,19.4-17.27c3-3.3,5.17-6.08,5.66-8.19,4.42-18.78.28-38.88-8.17-58-12.75-28.82-35.34-55.4-54.16-72A4.93,4.93,0,0,1,663.2,719a5,5,0,0,1,1.25-3.6,18.31,18.31,0,0,1,6.23-4.21,63,63,0,0,1,9.61-3.4c18.3-4,32.59,3.61,43.79,16.32,15.47,17.55,24.92,45,31.08,63.25a61,61,0,0,1,3.14,15.86,76.34,76.34,0,0,1-.81,16c-.11.76-.23,4-.31,6.48ZM381.75,813.89c-4-3.06-9.59-4-16.08-3.66-8.29.47-17.95,3.18-27.76,7.18a179.7,179.7,0,0,0-43.82,25.88c-5.65,4.65-10.15,9.17-12.79,13.13,3.41-1.41,7.19-2.74,11.23-4,22.18-6.88,52.48-11.82,71.5-19.67,5.43-2.24,9.9-4.7,12.88-7.57,2.31-2.22,3.66-4.67,3.58-7.5a5.71,5.71,0,0,1,.65-2.59c.16-.33.41-.82.61-1.2Z" transform="translate(-142.5 -186.35)"/><g class="cls-10"><path class="cls-9" d="M755.57,464.68a8.55,8.55,0,0,0-5.94,16,14,14,0,0,0,2.84.76L751,482.94c-27.88,27.53-93.67,84.93-140.5,125-2.1,1.8-4.12,3.68-6.08,5.62-7.35,7.25-13.92,15.3-21.71,22.1C534,678.22,489,722.73,450.24,771.16c-39.6,49.54-72.55,103.16-95.89,163-18.57,47.58-18.13,112.05-34.42,165.64-7.24,23.83-17.82,45.49-34.89,62.52,17.47-16.77,28.49-38.31,36.22-62.1,17.25-53.05,18-117.29,37.41-164.32,24.24-58.73,57.87-111.17,98-159.44C496,729.18,541.46,686,590.49,644.77c8.1-6.8,15-14.89,22.66-22.15,1.79-1.69,3.62-3.34,5.53-4.91,47.88-39.41,115.14-95.88,143.71-123,7.41-7,12.34-12.37,14.17-15.15,4.16-6.34,1-11-.89-12.66a11.54,11.54,0,0,0-5.61-2.7,31.69,31.69,0,0,0-8.87.09c-1.8.21-5,.39-5.6.42Z" transform="translate(-142.5 -186.35)"/><path class="cls-9" d="M594.15,631.14a15.62,15.62,0,0,0,5.95,2.12,8.55,8.55,0,0,0,2.18-16.9,12.3,12.3,0,0,0-3.35-1.34c-1.52-.26-3.19-1.52-4.85-2.8-2.78-2.13-5.37-4.52-7.2-6-8-6.56-17.83-13.85-26.7-21.63-5.75-5-11.08-10.24-15-15.62-16.44-22.4-38.92-30.31-63.35-29.9-33.88.57-71.28,17.13-98.78,29.49,27.75-10.27,65.43-24.21,98.66-22.51,21.39,1.1,40.82,8.92,53.87,29.48,4,6.32,9.54,12.58,15.59,18.67,8.41,8.46,17.87,16.5,25.45,23.67,2.62,2.47,6.74,6.82,10.84,9.79a24.6,24.6,0,0,0,6.73,3.5Zm7-14.94-.29,0,.29,0Z" transform="translate(-142.5 -186.35)"/><path class="cls-9" d="M601.6,635.71l64.7,29.18c29,13.09,61.51,19,84.07,34.64,15.29,10.6,25.82,25.71,27.52,50.67.22-25.92-9.76-42.23-24.72-54.4-21.44-17.43-53.54-26-81.67-41.35l-62.41-34.11a8.55,8.55,0,0,0-7.49,15.37Z" transform="translate(-142.5 -186.35)"/><path class="cls-9" d="M559.63,666.29c6,2.25,15.86,10.29,26.91,20.38,22.36,20.42,49,49.18,57.2,58.3-7.7-9.61-32.7-40-53.91-61.7-11.17-11.45-21.41-20.46-27.63-23.23a3.37,3.37,0,1,0-2.57,6.24Z" transform="translate(-142.5 -186.35)"/><path class="cls-9" d="M506.28,720.34c5.61,1.53,11.33,6.59,17.14,13.85,9.62,12,19.17,29.91,27.76,49.68,19.77,45.5,34.41,100.84,32.92,118.6,2.19-17.79-10.36-74-28.43-120.45-8-20.68-17.2-39.43-26.6-52.18-6.73-9.11-13.76-15.16-20.52-17.28a4,4,0,1,0-2.28,7.77Z" transform="translate(-142.5 -186.35)"/><path class="cls-9" d="M437.19,801c.86.29,1.23,1.37,1.74,2.6a41.48,41.48,0,0,1,2.32,9.24c1.56,10,1.71,21.87,2.57,26.43,4.2,22.31,16.63,56.78,17.2,87.41.39,20.92-4.82,40-22,52.08,18.13-11.48,24.25-30.71,24.87-52.06.89-30.78-9.87-66-13-88.58-.86-6.14.06-25.08-3-35.77-1.51-5.3-4.3-8.77-7.55-10a4.61,4.61,0,1,0-3.12,8.68Z" transform="translate(-142.5 -186.35)"/><path class="cls-9" d="M386.11,865.42c-2.87,2-9.7,6.14-12.69,7.91l-1.1.64a33.12,33.12,0,0,1-4.06.54c-4,.3-8.14.18-11.85.43a70.09,70.09,0,0,0-13.81,2.39c-17.65,4.81-33.55,15.08-51.73,16.29,18.18.13,34.73-8.9,52.64-12.39a65.5,65.5,0,0,1,13.05-1.29c3.74,0,7.94.45,11.93.45A38,38,0,0,0,374,880c.12,0,12-5.8,16.25-8.33a11,11,0,0,0,2-1.44,3.88,3.88,0,0,0-.77-6.06,4,4,0,0,0-2.56-.52,3.82,3.82,0,0,0-2.78,1.77Zm2.43,5.76a3,3,0,0,0,1.28.06,3.78,3.78,0,0,1-1.28-.06Z" transform="translate(-142.5 -186.35)"/><path class="cls-9" d="M465.49,753.43c-3.76,3.85-7.6,7.81-11.05,10.84a37.45,37.45,0,0,1-4.48,3.5,5.2,5.2,0,0,1-2,1c-26.38,1.39-54.09,2.46-80.69,6.8-18.13,3-35.72,7.41-52,14.52a29.28,29.28,0,0,0-5.32,3.1c-6.33,4.54-12,11.33-18.9,15,7-3.35,13-9.86,19.53-14.1a28.06,28.06,0,0,1,5.22-2.73c16.42-6.28,34-9.89,52-12,26.6-3.09,54.14-2.88,80.38-3.05,2.27,0,5.55-1.51,9.24-4.2a176,176,0,0,0,14.23-12.45,4.39,4.39,0,0,0-6.14-6.27Z" transform="translate(-142.5 -186.35)"/><path class="cls-9" d="M511.82,711.65a30,30,0,0,0-4.75-6.45,74.55,74.55,0,0,0-7.58-7.13c-5.36-4-14.29-8.85-23.59-13-9.12-4-18.56-7.42-25.16-8.79-9.83-2-43.59-.52-77.16,2.53-33.82,3.07-67.38,7.58-75.38,11.11,8.16-3.08,41.82-5.71,75.65-6.9,32.71-1.16,65.54-1,75,1.47,6.06,1.61,14.62,5.27,22.87,9.48s16.14,9,20.81,12.9a59,59,0,0,1,4.81,5,22.14,22.14,0,0,1,3.46,4.75,6.07,6.07,0,0,0,11.07-5Z" transform="translate(-142.5 -186.35)"/><path class="cls-9" d="M555.46,661.19a3.94,3.94,0,0,0,7.4,2.1,4.43,4.43,0,0,0,.52-2.34,11.49,11.49,0,0,0-1.9-4.8c-3.46-5.47-12.61-16-23.64-25-10.83-8.78-23.32-16-33.7-15.16,8.3.19,17.43,5.76,25.73,13.05a132.16,132.16,0,0,1,22.7,26.54,45,45,0,0,1,2.9,5.58Z" transform="translate(-142.5 -186.35)"/><path class="cls-9" d="M473.46,758.48c5.94,4.82,11.72,13.34,17,23,7.68,14.12,14.14,30.38,18.08,41.22-2.68-11.34-7.27-28.4-13.32-43.47C490.67,768,485.26,758,479.37,752a4.39,4.39,0,1,0-5.91,6.48Z" transform="translate(-142.5 -186.35)"/><path class="cls-9" d="M618.82,600.54a3.48,3.48,0,0,0,.56,1.42,5,5,0,0,0,.83.89,16.16,16.16,0,0,0,3.47,2.76,3.88,3.88,0,0,0,6.23-1.3,3.74,3.74,0,0,0,.18-2.53,3.86,3.86,0,0,0-2.33-2.61,9.1,9.1,0,0,1-2.31-1.45c-2.17-4.94-4.73-10-7.51-15-4.27-7.72-9-15.39-13.62-22.56-2.12-3.31-11.84-21.72-20.88-33.89-4.82-6.49-9.43-11.21-12.63-11,3.15,0,7.34,5,11.61,11.7,8.13,12.79,16.48,31.83,18.36,35.29,4,7.38,8.15,15.28,11.8,23.18,2.35,5.09,4.48,10.18,6.24,15.13Zm4.53-.07a3.79,3.79,0,0,1,1.46-1.12,3.13,3.13,0,0,0-1.46,1.12Z" transform="translate(-142.5 -186.35)"/></g></g></g></svg>